<svg width="299" height="271" viewBox="0 0 299 271" fill="none" xmlns="http://www.w3.org/2000/svg">
<g clip-path="url(#clip0_6_85)">
<path d="M125.388 128.943H105.41C100.799 128.943 96.5933 125.711 95.84 121.592L88.4602 81.4599C87.8242 77.9893 84.207 73.1833 80.8777 71.3689L65.0348 62.7551C62.7508 61.5134 62.0109 58.8282 63.3821 56.7576C64.7522 54.6875 67.7147 54.0132 69.9993 55.2597L85.8422 63.8735C91.6493 67.0318 96.8625 73.9767 97.9739 80.025L105.354 120.157L125.388 120.201C128.054 120.201 130.21 122.155 130.21 124.572C130.21 126.988 128.054 128.943 125.388 128.943Z" fill="#7D5A55"/>
<path d="M71.1275 178.655C70.4962 178.655 69.8795 178.62 69.2909 178.544L40.3089 174.792C37.6716 174.451 35.8397 172.235 36.2163 169.845C36.593 167.454 39.0463 165.807 41.6748 166.135L70.6574 169.887C71.9854 170.058 74.4673 169.439 75.5033 168.688L92.0809 156.667C94.7041 154.768 99.126 152.783 102.376 152.049L116.985 148.74C119.561 148.138 122.184 149.577 122.829 151.921C123.479 154.259 121.907 156.633 119.321 157.218L104.707 160.531C102.795 160.966 99.6487 162.375 98.1093 163.497L81.5318 175.518C78.8653 177.447 74.7394 178.655 71.1275 178.655Z" fill="#7D5A55"/>
<path d="M94.0442 271C93.7382 271 93.4275 270.974 93.1162 270.919C90.5023 270.458 88.7977 268.161 89.3063 265.792C92.9136 249.03 98.702 221.357 98.8621 218.472C98.7207 216.32 94.4915 199.456 90.4883 184.486C89.8757 182.195 90.3376 179.77 91.7555 177.832C93.1688 175.898 95.4481 174.566 98.01 174.182L107.716 172.713C110.349 172.299 112.822 173.926 113.264 176.307C113.702 178.685 111.926 180.939 109.299 181.336L99.9506 182.748C102.592 192.639 108.507 215.155 108.507 218.548C108.507 221.886 101.702 253.87 98.7727 267.465C98.3248 269.553 96.3048 271 94.0442 271Z" fill="#7D5A55"/>
<path d="M86.8099 172.649C84.686 172.649 82.5854 171.808 81.1587 170.191C78.6622 167.36 79.1661 163.237 82.284 160.975L90.5725 154.965C93.4778 152.86 98.1929 150.743 101.79 149.932L116.395 146.62C120.276 145.753 124.203 147.875 125.168 151.388C126.138 154.901 123.784 158.46 119.908 159.34L105.294 162.653C103.73 163.007 100.867 164.292 99.6144 165.201L91.3259 171.211C89.9891 172.18 88.3925 172.649 86.8099 172.649Z" fill="#64555A"/>
<path d="M125.388 131.128H106.098C102.104 131.128 98.8639 128.191 98.8639 124.572C98.8639 120.952 102.104 118.015 106.098 118.015H125.388C129.382 118.015 132.622 120.952 132.622 124.572C132.622 128.191 129.382 131.128 125.388 131.128Z" fill="#64555A"/>
<path d="M103.685 225.105C99.6908 225.105 96.4509 222.169 96.4509 218.549C96.2295 216.231 92.0523 199.605 88.1437 185.003C87.3763 182.118 87.9597 179.066 89.745 176.624C91.5249 174.186 94.3935 172.509 97.6147 172.027L107.316 170.558C111.268 169.956 114.988 172.372 115.642 175.945C116.302 179.517 113.636 182.894 109.699 183.491L102.899 184.52C106.709 198.845 110.919 215.385 110.919 218.548C110.918 222.169 107.679 225.105 103.685 225.105Z" fill="#64555A"/>
<path d="M173.612 128.943H193.59C198.201 128.943 202.407 125.711 203.16 121.592L210.54 81.4599C211.176 77.9893 214.793 73.1833 218.122 71.3689L233.965 62.7551C236.249 61.5134 236.989 58.8282 235.618 56.7576C234.248 54.6875 231.285 54.0132 229.001 55.2597L213.158 63.8735C207.351 67.0318 202.137 73.9767 201.026 80.025L193.646 120.157L173.612 120.201C170.946 120.201 168.79 122.155 168.79 124.572C168.79 126.988 170.946 128.943 173.612 128.943Z" fill="#7D5A55"/>
<path d="M227.872 178.655C228.504 178.655 229.12 178.62 229.709 178.544L258.692 174.792C261.329 174.451 263.161 172.235 262.784 169.845C262.408 167.454 259.954 165.807 257.326 166.135L228.343 169.887C227.015 170.058 224.533 169.439 223.497 168.688L206.92 156.667C204.296 154.768 199.874 152.783 196.625 152.049L182.016 148.74C179.44 148.138 176.816 149.577 176.171 151.921C175.521 154.259 177.094 156.633 179.68 157.218L194.293 160.531C196.205 160.966 199.352 162.375 200.891 163.497L217.469 175.518C220.135 177.447 224.26 178.655 227.872 178.655Z" fill="#7D5A55"/>
<path d="M204.956 271C205.262 271 205.572 270.974 205.884 270.919C208.498 270.458 210.202 268.161 209.694 265.792C206.086 249.03 200.298 221.357 200.138 218.472C200.279 216.32 204.508 199.456 208.512 184.486C209.124 182.195 208.662 179.77 207.244 177.832C205.831 175.898 203.552 174.566 200.99 174.182L191.283 172.713C188.651 172.299 186.178 173.926 185.736 176.307C185.298 178.685 187.073 180.939 189.701 181.336L199.049 182.748C196.407 192.639 190.492 215.154 190.492 218.548C190.492 221.886 197.297 253.869 200.227 267.464C200.675 269.553 202.695 271 204.956 271Z" fill="#7D5A55"/>
<path d="M212.19 172.649C214.314 172.649 216.415 171.808 217.841 170.191C220.338 167.36 219.834 163.237 216.716 160.975L208.428 154.965C205.522 152.86 200.807 150.743 197.21 149.932L182.606 146.62C178.725 145.753 174.797 147.875 173.832 151.388C172.862 154.901 175.216 158.46 179.092 159.34L193.706 162.653C195.27 163.007 198.133 164.292 199.386 165.201L207.674 171.211C209.011 172.18 210.608 172.649 212.19 172.649Z" fill="#64555A"/>
<path d="M173.612 131.128H192.902C196.896 131.128 200.136 128.191 200.136 124.572C200.136 120.952 196.896 118.015 192.902 118.015H173.612C169.618 118.015 166.378 120.952 166.378 124.572C166.378 128.191 169.618 131.128 173.612 131.128Z" fill="#64555A"/>
<path d="M195.315 225.105C199.309 225.105 202.549 222.169 202.549 218.549C202.771 216.231 206.948 199.605 210.856 185.003C211.624 182.118 211.04 179.066 209.255 176.624C207.475 174.186 204.607 172.509 201.385 172.027L191.684 170.558C187.732 169.956 184.012 172.372 183.357 175.945C182.698 179.517 185.363 182.894 189.3 183.491L196.101 184.52C192.291 198.845 188.08 215.385 188.08 218.548C188.082 222.169 191.321 225.105 195.315 225.105Z" fill="#64555A"/>
<path d="M144.677 85.2332C136.238 79.7698 120.565 67.7495 120.565 41.5239C120.565 15.2983 139.855 0 139.855 0C120.565 0 86.807 41.5239 115.742 89.6041H144.677V85.2332Z" fill="#64555A"/>
<path d="M154.323 85.2332C162.762 79.7698 178.435 67.7495 178.435 41.5239C178.435 15.2983 159.145 0 159.145 0C178.435 0 212.193 41.5239 183.258 89.6041H154.323V85.2332Z" fill="#64555A"/>
<path d="M178.435 150.797C168.79 150.797 168.79 145.607 168.79 137.684H130.21C130.21 145.607 130.21 150.797 120.565 150.797L149.5 168.281L178.435 150.797Z" fill="#64555A"/>
<path d="M182.569 146.426H171.545C160.522 146.426 157.767 163.91 149.5 163.91C141.233 163.91 138.477 146.426 127.455 146.426H116.431C113.387 146.426 110.92 148.71 110.92 151.526V179.572C110.92 211.96 128.193 238.216 149.5 238.216C170.807 238.216 188.08 214.146 188.08 181.758V151.526C188.08 148.71 185.613 146.426 182.569 146.426Z" fill="#7D5A55"/>
<path d="M177.632 115.83C177.632 115.83 183.258 122.823 183.258 131.565C183.258 140.307 175.99 142.055 172.709 142.055C169.427 142.055 172.709 142.055 149.5 142.055C126.291 142.055 129.573 142.055 126.291 142.055C123.009 142.055 115.742 140.307 115.742 131.565C115.742 122.823 121.368 115.83 121.368 115.83" fill="#7D5A55"/>
<path d="M149.5 163.91C147.67 163.91 146.117 163.025 144.677 161.69V237.709C146.261 238.01 147.863 238.216 149.5 238.216C151.137 238.216 152.739 238.027 154.323 237.749V161.69C152.883 163.025 151.33 163.91 149.5 163.91Z" fill="#64555A"/>
<path d="M149.5 80.8623C144.677 80.8623 140.658 83.9587 135.032 85.2332C127.582 86.9217 121.319 86.8407 117.046 86.3813C112.703 85.9139 109.252 89.6698 110.693 93.4125C110.764 93.5967 110.839 93.784 110.92 93.9751C114.918 103.452 108.308 109.273 110.92 111.459C120.843 119.761 140.257 120.201 149.5 120.201C158.743 120.201 178.157 119.761 188.08 111.459C190.693 109.273 184.082 103.452 188.08 93.9751C188.161 93.784 188.236 93.5967 188.308 93.4125C189.748 89.6698 186.297 85.9139 181.954 86.3813C177.68 86.8407 171.418 86.9217 163.968 85.2332C158.342 83.9587 154.323 80.8623 149.5 80.8623Z" fill="#8C645A"/>
</g>
<defs>
<clipPath id="clip0_6_85">
<rect width="299" height="271" fill="white"/>
</clipPath>
</defs>
</svg>
