<svg width="123" height="123" viewBox="0 0 123 123" fill="none" xmlns="http://www.w3.org/2000/svg">
<g clip-path="url(#clip0_194_2)">
<path d="M61.44 6.04868e-05C75.6599 -0.0040042 89.4412 4.92291 100.436 13.9412C111.43 22.9595 118.957 35.5112 121.734 49.4573C124.511 63.4034 122.366 77.881 115.665 90.423C108.964 102.965 98.1214 112.795 84.9846 118.239C71.8478 123.682 57.2299 124.402 43.6219 120.275C30.0139 116.149 18.2579 107.431 10.3571 95.608C2.45637 83.785 -1.10023 69.5881 0.293412 55.4366C1.68705 41.2851 7.94468 28.0548 18 18.0001C23.6967 12.2843 30.4674 7.75151 37.9226 4.66235C45.3777 1.5732 53.3701 -0.0112838 61.44 6.04868e-05V6.04868e-05ZM49.28 71.3501C49.54 69.1701 43.05 60.8101 41.87 56.8101C39.33 52.8101 38.43 46.3501 41.19 42.0801C42.3 40.3901 41.82 38.9201 41.82 36.5701C41.82 13.3301 82.52 13.3301 82.52 36.5701C82.52 39.5101 81.85 40.2001 83.44 42.5701C86.1 46.4301 84.73 53.2901 82.44 56.8701C81 61.0001 74.24 69.0001 74.71 71.3701C75.13 83.2901 49.21 82.9001 49.28 71.3701V71.3501ZM18.28 91.4201C21.53 87.8201 27.37 87.6601 34.45 84.0601C37.1218 82.7068 39.7098 81.1941 42.2 79.5301C50.42 89.6101 57.2 100.69 54.98 113.58C57.1164 113.845 59.2671 113.979 61.42 113.98C61.97 113.98 62.51 113.98 63.06 113.98C62.56 98.8401 71.44 87.7701 80.85 78.3501C85.6669 81.5423 90.8681 84.1127 96.33 86.0001C100.95 87.5401 103.72 88.5301 105.33 90.3001C110.582 82.3334 113.565 73.0868 113.959 63.5529C114.354 54.019 112.144 44.5577 107.568 36.1846C102.992 27.8115 96.2215 20.8427 87.9842 16.0263C79.7469 11.2098 70.3534 8.72762 60.8121 8.84607C51.2708 8.96451 41.9418 11.6791 33.8266 16.6986C25.7114 21.718 19.1164 28.8527 14.7494 37.3368C10.3824 45.8209 8.4084 55.3342 9.03921 64.8554C9.67003 74.3766 12.8819 83.5462 18.33 91.3801L18.28 91.4201Z" fill="#EEEEEE"/>
</g>
<defs>
<clipPath id="clip0_194_2">
<rect width="122.88" height="122.88" fill="white"/>
</clipPath>
</defs>
</svg>
